<svg width="108" height="141" viewBox="0 0 108 141" fill="none" xmlns="http://www.w3.org/2000/svg">
<path d="M24.75 103.375C24.25 108.375 21.5 111.083 16.5 111.5C14.1667 111.5 12.125 110.75 10.375 109.25C8.70833 107.667 7.875 105.708 7.875 103.375V44.125C7.95833 41.7917 8.83333 39.875 10.5 38.375C12.1667 36.7917 14.1667 36 16.5 36H22.625H38H68.875C69.375 36 69.875 36.0417 70.375 36.125H71.125C76.9583 36.2917 81.75 37.625 85.5 40.125C89.25 42.625 91.9583 45.5 93.625 48.75C95.2917 51.9167 96.125 55.125 96.125 58.375C96.125 61.7083 95.2917 65 93.625 68.25C92.0417 71.4167 89.3333 74.25 85.5 76.75C81.75 79.25 76.9583 80.5833 71.125 80.75H49.125C49.7917 84.9167 51.1667 88 53.25 90C55.25 92 57.7917 93 60.875 93H87.875C90.2083 93.0833 92.125 93.9583 93.625 95.625C95.2083 97.2917 96 99.2917 96 101.625C95.9167 103.875 95.0833 105.792 93.5 107.375C92 108.875 90.125 109.667 87.875 109.75H58.625C52.4583 109.833 46.875 107.417 41.875 102.5C36.875 97.5833 33.8333 91.75 32.75 85C31.25 77.5 30.5 73.2917 30.5 72.375C30.5 70.0417 31.2917 68.0833 32.875 66.5C34.5417 64.8333 36.5417 64 38.875 64H71.875C73.4583 63.9167 74.75 63.5833 75.75 63C76.8333 62.3333 77.625 61.625 78.125 60.875C78.625 60.0417 78.875 59.2083 78.875 58.375C78.875 57.5417 78.625 56.75 78.125 56C77.625 55.1667 76.8333 54.4583 75.75 53.875C74.75 53.2083 73.4583 52.8333 71.875 52.75H38H28C25.8333 52.8333 24.75 53.9167 24.75 56V103.375Z" fill="white"/>
<path d="M79.48 115.696C79.512 115.072 79.576 114.592 79.672 114.256C81.4 114.544 83.472 114.688 85.888 114.688C88.304 114.688 90.832 114.4 93.472 113.824C93.2 115.856 92.168 116.968 90.376 117.16C89.816 117.24 88.952 117.32 87.784 117.4C87.752 117.864 87.488 119.896 86.992 123.496C86.496 127.08 86.248 129.552 86.248 130.912C86.248 132.272 86.36 133.216 86.584 133.744C85.224 133.392 84.296 132.928 83.8 132.352C83.304 131.76 83.056 131.032 83.056 130.168C83.056 129.304 83.256 127.432 83.656 124.552C84.072 121.656 84.32 119.328 84.4 117.568C83.104 117.632 81.832 117.664 80.584 117.664C79.848 117.664 79.48 117.008 79.48 115.696ZM100.239 133C100.111 133.048 99.7913 133.112 99.2793 133.192C98.7673 133.288 98.2953 133.336 97.8633 133.336C97.4473 133.336 97.2073 133.216 97.1433 132.976C96.8553 131.984 96.4233 130.048 95.8473 127.168C95.2713 124.272 94.6873 121.648 94.0953 119.296C93.5193 116.944 92.9593 115.384 92.4153 114.616C93.2953 114.2 93.9913 113.992 94.5033 113.992C95.0153 113.992 95.3833 114.048 95.6073 114.16C95.8313 114.272 96.0473 114.52 96.2553 114.904C96.4793 115.288 96.6713 115.8 96.8313 116.44C97.0713 117.4 97.3673 118.824 97.7193 120.712C98.0713 122.6 98.2713 123.64 98.3193 123.832C98.8793 126.68 99.2473 128.632 99.4233 129.688C100.463 127.464 101.615 124.512 102.879 120.832C104.143 117.136 104.775 114.736 104.775 113.632C106.583 113.936 107.487 114.528 107.487 115.408C107.487 116.064 107.031 117.456 106.119 119.584C105.223 121.696 104.135 124.136 102.855 126.904C101.591 129.656 100.719 131.688 100.239 133Z" fill="white"/>
</svg>
